<mxfile host="app.diagrams.net" modified="2024-04-27T00:11:14.638Z" agent="Mozilla/5.0 (Windows NT 10.0; Win64; x64) AppleWebKit/537.36 (KHTML, like Gecko) Chrome/124.0.0.0 Safari/537.36" etag="RZpfK7sIG-sQQUI62uDf" version="24.3.0" type="github">
  <diagram id="R2lEEEUBdFMjLlhIrx00" name="Page-1">
    <mxGraphModel dx="1050" dy="530" grid="1" gridSize="10" guides="1" tooltips="1" connect="1" arrows="1" fold="1" page="1" pageScale="1" pageWidth="850" pageHeight="1100" math="0" shadow="0" extFonts="Permanent Marker^https://fonts.googleapis.com/css?family=Permanent+Marker">
      <root>
        <mxCell id="0" />
        <mxCell id="1" parent="0" />
        <mxCell id="9jqiVQldkScshgEabO2--25" style="edgeStyle=orthogonalEdgeStyle;rounded=0;orthogonalLoop=1;jettySize=auto;html=1;entryX=1;entryY=0.5;entryDx=0;entryDy=0;" edge="1" parent="1" source="9jqiVQldkScshgEabO2--1" target="9jqiVQldkScshgEabO2--17">
          <mxGeometry relative="1" as="geometry" />
        </mxCell>
        <mxCell id="9jqiVQldkScshgEabO2--1" value="actores" style="whiteSpace=wrap;html=1;align=center;" vertex="1" parent="1">
          <mxGeometry x="140" y="210" width="100" height="40" as="geometry" />
        </mxCell>
        <mxCell id="9jqiVQldkScshgEabO2--26" style="edgeStyle=orthogonalEdgeStyle;rounded=0;orthogonalLoop=1;jettySize=auto;html=1;entryX=0;entryY=0.5;entryDx=0;entryDy=0;" edge="1" parent="1" source="9jqiVQldkScshgEabO2--2" target="9jqiVQldkScshgEabO2--22">
          <mxGeometry relative="1" as="geometry" />
        </mxCell>
        <mxCell id="9jqiVQldkScshgEabO2--27" style="edgeStyle=orthogonalEdgeStyle;rounded=0;orthogonalLoop=1;jettySize=auto;html=1;entryX=0;entryY=0.5;entryDx=0;entryDy=0;" edge="1" parent="1" source="9jqiVQldkScshgEabO2--2" target="9jqiVQldkScshgEabO2--23">
          <mxGeometry relative="1" as="geometry" />
        </mxCell>
        <mxCell id="9jqiVQldkScshgEabO2--28" style="edgeStyle=orthogonalEdgeStyle;rounded=0;orthogonalLoop=1;jettySize=auto;html=1;entryX=0;entryY=0.5;entryDx=0;entryDy=0;" edge="1" parent="1" source="9jqiVQldkScshgEabO2--2" target="9jqiVQldkScshgEabO2--24">
          <mxGeometry relative="1" as="geometry" />
        </mxCell>
        <mxCell id="9jqiVQldkScshgEabO2--2" value="peliculas" style="whiteSpace=wrap;html=1;align=center;" vertex="1" parent="1">
          <mxGeometry x="580" y="210" width="100" height="40" as="geometry" />
        </mxCell>
        <mxCell id="9jqiVQldkScshgEabO2--4" value="participacion" style="shape=rhombus;perimeter=rhombusPerimeter;whiteSpace=wrap;html=1;align=center;" vertex="1" parent="1">
          <mxGeometry x="350" y="200" width="120" height="60" as="geometry" />
        </mxCell>
        <mxCell id="9jqiVQldkScshgEabO2--9" value="" style="endArrow=none;html=1;rounded=0;exitX=1;exitY=0.5;exitDx=0;exitDy=0;entryX=0;entryY=0.5;entryDx=0;entryDy=0;" edge="1" parent="1" source="9jqiVQldkScshgEabO2--1" target="9jqiVQldkScshgEabO2--4">
          <mxGeometry relative="1" as="geometry">
            <mxPoint x="250" y="290" as="sourcePoint" />
            <mxPoint x="410" y="290" as="targetPoint" />
          </mxGeometry>
        </mxCell>
        <mxCell id="9jqiVQldkScshgEabO2--10" value="N" style="resizable=0;html=1;whiteSpace=wrap;align=right;verticalAlign=bottom;" connectable="0" vertex="1" parent="9jqiVQldkScshgEabO2--9">
          <mxGeometry x="1" relative="1" as="geometry" />
        </mxCell>
        <mxCell id="9jqiVQldkScshgEabO2--11" value="" style="endArrow=none;html=1;rounded=0;exitX=0;exitY=0.5;exitDx=0;exitDy=0;entryX=1;entryY=0.5;entryDx=0;entryDy=0;" edge="1" parent="1" source="9jqiVQldkScshgEabO2--2" target="9jqiVQldkScshgEabO2--4">
          <mxGeometry relative="1" as="geometry">
            <mxPoint x="250" y="240" as="sourcePoint" />
            <mxPoint x="510" y="250" as="targetPoint" />
          </mxGeometry>
        </mxCell>
        <mxCell id="9jqiVQldkScshgEabO2--12" value="N" style="resizable=0;html=1;whiteSpace=wrap;align=right;verticalAlign=bottom;" connectable="0" vertex="1" parent="9jqiVQldkScshgEabO2--11">
          <mxGeometry x="1" relative="1" as="geometry" />
        </mxCell>
        <mxCell id="9jqiVQldkScshgEabO2--18" style="edgeStyle=orthogonalEdgeStyle;rounded=0;orthogonalLoop=1;jettySize=auto;html=1;exitX=0;exitY=0.25;exitDx=0;exitDy=0;" edge="1" parent="1" source="9jqiVQldkScshgEabO2--1" target="9jqiVQldkScshgEabO2--16">
          <mxGeometry relative="1" as="geometry">
            <mxPoint x="120" y="150" as="targetPoint" />
          </mxGeometry>
        </mxCell>
        <mxCell id="9jqiVQldkScshgEabO2--16" value="actor_id" style="ellipse;whiteSpace=wrap;html=1;align=center;fontStyle=4;" vertex="1" parent="1">
          <mxGeometry y="170" width="100" height="40" as="geometry" />
        </mxCell>
        <mxCell id="9jqiVQldkScshgEabO2--17" value="nombre" style="ellipse;whiteSpace=wrap;html=1;align=center;" vertex="1" parent="1">
          <mxGeometry y="250" width="100" height="40" as="geometry" />
        </mxCell>
        <mxCell id="9jqiVQldkScshgEabO2--22" value="pelicula_id" style="ellipse;whiteSpace=wrap;html=1;align=center;fontStyle=4;" vertex="1" parent="1">
          <mxGeometry x="730" y="130" width="100" height="40" as="geometry" />
        </mxCell>
        <mxCell id="9jqiVQldkScshgEabO2--23" value="nombre" style="ellipse;whiteSpace=wrap;html=1;align=center;" vertex="1" parent="1">
          <mxGeometry x="730" y="210" width="100" height="40" as="geometry" />
        </mxCell>
        <mxCell id="9jqiVQldkScshgEabO2--24" value="genero" style="ellipse;whiteSpace=wrap;html=1;align=center;" vertex="1" parent="1">
          <mxGeometry x="730" y="290" width="100" height="40" as="geometry" />
        </mxCell>
      </root>
    </mxGraphModel>
  </diagram>
</mxfile>
